<svg width="327" height="183" viewBox="0 0 327 183" fill="none" xmlns="http://www.w3.org/2000/svg">
<circle cx="163.5" cy="91.5" r="91.5" fill="#F5F7FA"/>
<mask id="mask0_513_7472" style="mask-type:alpha" maskUnits="userSpaceOnUse" x="72" y="0" width="183" height="183">
<circle cx="163.5" cy="91.5" r="91.5" fill="white"/>
</mask>
<g mask="url(#mask0_513_7472)">
<path opacity="0.87121" fill-rule="evenodd" clip-rule="evenodd" d="M69.9884 182.609C43.9901 169.932 44.8335 130.533 60.6316 113.512C86.907 85.2033 121.435 94.1451 154.037 79.6495C160.466 76.7909 172.573 67.1668 173.95 65.7902C181.135 58.6066 195.574 50.4447 202.753 49.5161C232.159 45.7128 252.743 53.7138 266.576 79.3519C272.598 90.5139 271.006 115.77 263.176 130.085C252.779 149.092 236.074 155.765 218.23 157.696C206.623 158.952 194.866 159.495 183.218 158.693C167.137 157.586 161.534 151.05 146.841 153.698C134.657 155.893 130.697 176.174 120.855 182.609C120.855 182.609 95.9867 195.286 69.9884 182.609Z" fill="#EDF2F6"/>
<path fill-rule="evenodd" clip-rule="evenodd" d="M201.314 64.6565C200.527 61.4721 199.128 58.483 198.442 55.2668C198.169 54.0016 198.123 52.2139 198.143 50.4932C198.196 49.3177 198.229 48.1423 198.229 46.9675C198.229 46.9522 198.229 46.9343 198.229 46.919C198.289 45.8458 198.256 45.0655 198.163 44.4778C197.836 37.2663 196.017 30.2434 190.914 24.3488C188.27 21.2886 184.752 18.9583 180.768 18.0843C176.352 17.1147 171.875 18.0976 167.445 17.8639C158.757 12.6287 145.98 20.2387 141.117 29.4458C139.791 31.9561 130.638 49.0939 127.487 64.5018C125.721 73.0926 126.581 81.0711 129.878 85.8547C135.254 93.6512 144.328 91.6536 146.226 91.2246C148.318 90.7497 150.304 90.8766 152.269 89.8446C155.506 88.1451 157.365 84.8014 157.438 81.3095C157.472 79.369 155.66 78.4805 154.134 78.7428C153.628 77.04 152.649 75.4854 151.416 74.0323C149.338 71.5804 147.412 69.5164 146.226 66.7252C146.22 66.678 146.22 66.6302 146.213 66.5824C146.173 66.1162 146 65.7476 145.76 65.4508C145.687 65.221 145.607 65.0012 145.54 64.7588C143.628 57.3268 145.773 49.5933 146.613 42.168C146.646 41.8698 146.613 41.5916 146.54 41.3319C147.346 38.0831 148.425 34.8921 147.805 31.3989C147.765 31.1452 147.679 30.9254 147.572 30.7215L161.476 30.258C164.413 30.1597 165.286 26.626 163.787 25.0448C165.366 25.2108 166.938 25.5542 168.497 26.1426C170.442 26.8777 172.148 25.3231 172.374 23.5844C177.298 23.4988 182.067 23.7246 185.825 27.6448C190.062 32.0697 191.374 37.9749 191.82 43.9292C191.78 44.1178 191.754 44.3151 191.747 44.5296C191.727 45.197 191.8 45.889 191.954 46.5471C191.647 51.2217 188.976 57.1342 187.957 59.0834C186.591 61.6966 186.444 64.3172 185.691 67.1031C184.959 69.8212 183.346 72.1223 181.601 74.294C178.337 78.3536 174.773 81.9484 172.594 86.7147C172.494 86.9205 172.394 87.1357 172.301 87.3688C170.975 90.7883 175.932 92.5555 177.717 89.7695C177.79 89.9037 178.057 89.9668 178.53 89.9575C179.363 90.2291 180.202 90.5007 181.035 90.7723C182.627 91.289 184.219 91.9086 185.838 92.3137C188.303 92.928 190.481 92.7235 192.613 91.3076C196.53 88.7096 199.242 83.8497 200.681 79.4985C202.253 74.7422 202.519 69.5264 201.314 64.6565Z" fill="#0D172A"/>
<path fill-rule="evenodd" clip-rule="evenodd" d="M180.405 105.318C178.863 101.536 179.855 87.1654 180.486 78.5635C180.707 75.4998 178.44 77.5002 177.26 79.7416C177.213 79.7744 177.159 79.8031 177.119 79.8391C175.898 79.45 174.423 79.9099 173.98 81.4971C173.913 81.7167 173.859 81.9383 173.799 82.1579C172.598 81.2789 170.465 81.7214 169.734 83.4315C169.593 83.7646 169.459 84.101 169.332 84.4368C169.037 82.1139 165.757 81.1574 164.717 83.1592C164.711 83.1105 164.711 83.0624 164.704 83.013C164.496 81.3777 162.752 80.7028 161.404 81.1133C160.706 79.1616 157.48 79.1816 156.776 81.2001C156.514 81.0886 156.239 81.0246 155.964 81.0019C155.971 80.7435 155.978 80.4852 155.984 80.2276C156.025 80.1475 156.065 80.0721 156.098 79.9893C156.333 79.3765 156.333 78.9086 156.286 78.2485C156.259 77.8393 155.971 76.3548 156.051 77.872C155.87 74.5239 151.148 74.1348 151.028 77.6464C151.021 77.9481 151.014 78.2498 151.008 78.5508C150.961 78.8359 149.177 79.5541 150.23 80.1955C152.175 94.5639 152.718 101.921 150.236 104.244C147.855 106.469 156.273 112.426 156.528 108.91C156.541 108.68 156.561 108.45 156.581 108.219C157.091 108.475 157.695 108.526 158.265 108.395C158.312 108.488 158.345 108.58 158.392 108.674C159.117 110.172 160.814 110.366 161.974 109.62C162.933 111.086 164.912 111.258 165.965 110.164C167.145 111.451 169.07 111.011 169.889 109.646C171.109 110.248 172.974 109.458 173.584 107.938C173.832 108.052 174.101 108.12 174.376 108.145C175.603 109.572 178.226 109.674 178.635 107.338C178.682 107.103 178.937 107.664 178.937 107.664C178.937 107.661 180.405 105.321 180.405 105.318Z" fill="#FFC0A9"/>
<mask id="mask1_513_7472" style="mask-type:alpha" maskUnits="userSpaceOnUse" x="149" y="75" width="32" height="36">
<path fill-rule="evenodd" clip-rule="evenodd" d="M180.405 105.318C178.863 101.536 179.855 87.1654 180.486 78.5635C180.707 75.4998 178.44 77.5002 177.26 79.7416C177.213 79.7744 177.159 79.8031 177.119 79.8391C175.898 79.45 174.423 79.9099 173.98 81.4971C173.913 81.7167 173.859 81.9383 173.799 82.1579C172.598 81.2789 170.465 81.7214 169.734 83.4315C169.593 83.7646 169.459 84.101 169.332 84.4368C169.037 82.1139 165.757 81.1574 164.717 83.1592C164.711 83.1105 164.711 83.0624 164.704 83.013C164.496 81.3777 162.752 80.7028 161.404 81.1133C160.706 79.1616 157.48 79.1816 156.776 81.2001C156.514 81.0886 156.239 81.0246 155.964 81.0019C155.971 80.7435 155.978 80.4852 155.984 80.2276C156.025 80.1475 156.065 80.0721 156.098 79.9893C156.333 79.3765 156.333 78.9086 156.286 78.2485C156.259 77.8393 155.971 76.3548 156.051 77.872C155.87 74.5239 151.148 74.1348 151.028 77.6464C151.021 77.9481 151.014 78.2498 151.008 78.5508C150.961 78.8359 149.177 79.5541 150.23 80.1955C152.175 94.5639 152.718 101.921 150.236 104.244C147.855 106.469 156.273 112.426 156.528 108.91C156.541 108.68 156.561 108.45 156.581 108.219C157.091 108.475 157.695 108.526 158.265 108.395C158.312 108.488 158.345 108.58 158.392 108.674C159.117 110.172 160.814 110.366 161.974 109.62C162.933 111.086 164.912 111.258 165.965 110.164C167.145 111.451 169.07 111.011 169.889 109.646C171.109 110.248 172.974 109.458 173.584 107.938C173.832 108.052 174.101 108.12 174.376 108.145C175.603 109.572 178.226 109.674 178.635 107.338C178.682 107.103 178.937 107.664 178.937 107.664C178.937 107.661 180.405 105.321 180.405 105.318Z" fill="white"/>
</mask>
<g mask="url(#mask1_513_7472)">
<path fill-rule="evenodd" clip-rule="evenodd" d="M180.165 79.5077C178.15 79.391 176.046 79.8342 174.011 80.2103C173.949 80.415 173.901 80.621 173.84 80.8263C173.531 80.6125 173.168 80.4782 172.778 80.4235C172.64 80.4469 172.503 80.4717 172.366 80.4919C171.962 80.5512 171.558 80.6034 171.153 80.6601C170.537 80.926 169.988 81.3895 169.687 82.07C169.543 82.3952 169.406 82.7237 169.269 83.0516C169.152 82.1593 168.563 81.4781 167.823 81.0935C166.822 81.2135 165.828 81.3256 164.828 81.4292C164.725 81.5407 164.636 81.6626 164.561 81.804C164.554 81.7558 164.547 81.7082 164.54 81.6613C164.533 81.5902 164.506 81.5322 164.492 81.4657C163.491 81.5668 162.491 81.6626 161.49 81.748C158.379 82.0139 152.355 77.6689 149.812 80.0591C150.326 84.0189 151.279 90.9887 151.402 93.6611C153.945 95.3675 157.077 96.2149 160.243 95.9027C162.861 95.6446 165.054 94.4218 167.494 93.607C170.893 92.4709 173.812 92.8411 177.28 93.2563C178.164 93.3619 178.993 93.3196 179.775 93.1618C179.857 88.723 180.193 83.6988 180.501 79.5422C180.385 79.5318 180.282 79.5142 180.165 79.5077Z" fill="#EB9879"/>
</g>
<path fill-rule="evenodd" clip-rule="evenodd" d="M189.886 48.8898C187.949 48.0739 186.457 46.3179 185.769 44.19C183.164 36.2145 176.962 29.4819 168.6 27.3447C164.511 26.2978 159.463 25.5064 155.339 26.8076C151.364 28.0598 148.523 31.8832 144.42 32.6885C142.969 36.1568 141.525 40.1462 141.518 42.8941L142.301 58.6632C142.294 63.033 142.544 68.8296 144.326 72.8721C148.496 82.3394 161.292 90.8394 163.444 91.4741C164.902 91.905 165.334 91.9016 166.306 91.5743C170.868 90.0487 182.354 80.9419 184.952 76.3377C188.482 70.1016 190.722 62.478 192.113 54.9865C190.851 54.6499 189.751 53.3991 189.73 52.0626C189.717 51.0017 189.791 49.9448 189.886 48.8898Z" fill="#FFC0A9"/>
<path fill-rule="evenodd" clip-rule="evenodd" d="M167.77 67.1097C166.185 67.2565 164.308 67.1201 163.253 65.6939C162.238 64.3125 162.928 62.5196 163.233 60.9907C163.399 60.1208 162.092 59.8988 161.92 60.7674C161.502 62.9111 160.858 64.9694 162.404 66.7768C163.79 68.396 165.939 68.6634 167.909 68.4808C168.758 68.4015 168.619 67.0305 167.77 67.1097Z" fill="#EB9879"/>
<path fill-rule="evenodd" clip-rule="evenodd" d="M193.286 57.3283C191.893 53.9384 188.741 55.0479 187.58 57.8579C187.342 58.4344 187.522 58.9138 187.87 59.2159C187.136 61.179 186.542 63.3047 186.027 65.3034C185.969 65.517 185.911 65.7504 185.859 65.9911C185.859 65.9924 185.853 65.993 185.853 65.9944C185.356 66.5339 185.401 67.2228 185.704 67.722C185.775 68.2285 185.975 68.6913 186.426 69.0252C187.606 69.8973 189.244 68.8864 190.185 68.1313C192.925 65.9289 194.672 60.7241 193.286 57.3283Z" fill="#FFC0A9"/>
<path fill-rule="evenodd" clip-rule="evenodd" d="M198.267 111.363C191.322 109.811 180.078 107.262 178.052 98.694C177.263 95.3674 172.457 96.7857 173.246 100.11C173.386 100.726 173.573 101.306 173.78 101.87C172.557 100.959 171.274 100.771 170.13 101.083C168.459 100.719 166.862 101.33 165.819 102.537C165.678 102.257 165.518 101.979 165.337 101.701C163.746 99.2321 160.116 98.1047 157.997 100.69C157.864 100.853 157.73 101.011 157.596 101.172C157.703 100.824 157.81 100.476 157.897 100.11C158.686 96.7857 153.879 95.3674 153.091 98.694C151.058 107.262 139.821 109.811 132.876 111.363C125.134 113.09 117.828 114.833 111.471 120.171C107 127 101 136 102.092 168.022C102.473 170.055 104.378 170.329 105.688 169.492C107.032 173.319 112.654 173.876 114.245 170.158C115.562 170.2 116.912 169.729 117.875 168.693C118.918 169.998 120.595 170.676 122.574 170.276C123.53 170.082 124.319 169.677 124.987 169.132C125.001 169.875 125.054 170.624 125.161 171.381C125.756 175.735 131.9 176.069 133.704 172.574C134.406 171.216 134.995 169.792 135.509 168.325C137.548 172.144 142.562 171.888 144.14 167.459C144.347 166.886 144.534 166.308 144.721 165.731C145.256 166.212 145.864 166.58 146.499 166.772C148.639 167.428 150.53 166.257 151.774 164.478C152.141 163.956 152.469 163.401 152.77 162.826C154.113 165.781 158.265 166.807 160.424 164.229C160.865 164.598 161.373 164.903 161.975 165.101C167.116 166.804 172.463 166.136 177.711 165.438C178.513 165.331 179.309 165.21 180.098 165.079C181.12 166.915 183.547 167.703 185.399 167.262C187.317 166.806 188.755 165.534 189.851 163.823C190.459 165.212 191.308 166.384 192.478 167.183C194.724 168.717 197.612 168.002 199.243 165.905C199.838 167.627 200.7 169.169 201.984 170.349C204.277 172.458 207.412 172.077 209.043 169.696C210.607 172.057 214.11 172.15 216.176 170.232C216.818 169.641 217.279 168.966 217.633 168.238C217.734 168.267 217.834 168.293 217.934 168.315C217.968 168.342 217.994 168.373 218.021 168.4C219.899 170.095 222.781 170.356 224.545 168.538C225.575 170.35 229.051 170.642 229.051 168.022C229.051 149.895 225.762 130.885 219.672 120.171C213.315 114.833 206.002 113.09 198.267 111.363Z" fill="#FFC0A9"/>
<path fill-rule="evenodd" clip-rule="evenodd" d="M183.602 22.731C179.05 19.5765 173.378 18.3678 167.879 18.7003C162.554 19.0216 156.263 20.332 152.77 24.5968C152.157 25.3444 152.297 26.4377 152.85 27.2135C151.79 28.5809 152.237 30.9799 154.423 30.8789C161.908 30.5346 170.905 28.8596 178.096 31.4895C187.014 34.7489 188.827 45.021 188.154 52.8496C187.94 55.3738 192.113 56.248 192.699 53.6871C195.172 42.8614 193.852 29.8302 183.602 22.731Z" fill="#0D172A"/>
<path fill-rule="evenodd" clip-rule="evenodd" d="M180.491 58.2182C180.389 59.6114 179.565 60.6906 178.654 60.6298C177.743 60.5689 177.092 59.3908 177.193 57.9991C177.295 56.606 178.112 55.5267 179.023 55.5869C179.934 55.647 180.592 56.8251 180.491 58.2182Z" fill="#1E2144"/>
<path fill-rule="evenodd" clip-rule="evenodd" d="M155.608 56.1986C155.5 57.5917 154.683 58.6709 153.772 58.6108C152.861 58.5499 152.21 57.3718 152.311 55.9794C152.412 54.5863 153.229 53.507 154.14 53.5679C155.051 53.628 155.709 54.8068 155.608 56.1986Z" fill="#1E2144"/>
<path fill-rule="evenodd" clip-rule="evenodd" d="M183.434 33.6686C183.217 33.3797 182.981 33.1528 182.731 32.9813C182.453 32.6823 182.19 32.386 181.919 32.0957C179.439 29.3661 176.234 25.9478 172.429 25.1396C170.178 24.6625 168.15 25.7583 167.616 27.6082C165.825 25.8631 163.77 24.3448 161.269 23.1415C157.787 21.4671 154.421 26.479 157.936 28.1688C159.217 28.7848 157.237 30.763 158.107 31.4897C161.911 34.667 165.5 37.5511 168.889 42.3417C173.053 48.2279 175.531 48.2007 178.303 49.7663C181.041 51.316 186.36 51.9259 188.584 54.237C190.538 56.2725 193.892 56.7317 194.312 54.237C195.467 47.3818 188.544 39.5295 184.076 34.4802C183.846 34.2005 183.63 33.9276 183.434 33.6686Z" fill="#0D172A"/>
<path fill-rule="evenodd" clip-rule="evenodd" d="M156.426 27.8281C156.534 27.5178 156.63 27.2041 156.718 26.8864C157.003 25.8349 156.338 24.7424 155.19 24.6771C154.443 24.6347 153.859 24.7673 153.39 25.0171C152.629 24.6859 151.638 24.7996 151.21 25.5179C150.619 25.1638 149.831 25.149 149.227 25.6855C148.67 26.1728 149.186 22.3259 148.738 22.9081C147.984 22.0681 145.2 26.5451 144.758 27.853C143.964 30.1773 140.405 39.9471 141.043 45.481C141.03 45.7893 141.009 46.0962 141.009 46.4065C141.016 46.9235 141.213 47.3489 141.512 47.6505C141.098 48.4744 140.649 49.2848 140.133 50.0731C139.413 51.1797 140.201 52.5576 141.471 52.6754C146.667 53.158 153.39 48.5771 156.718 43.5888C158.222 41.3334 158.053 40.6019 158.936 37.7586C160.084 34.0812 158.653 29.904 161.655 27.4922C163.353 26.1223 161.071 23.6318 159.373 24.9948C158.307 25.8565 157.322 26.8062 156.426 27.8281Z" fill="#0D172A"/>
<path fill-rule="evenodd" clip-rule="evenodd" d="M188.481 38.9404C188.019 38.1892 186.776 38.8103 187.237 39.5677C189.724 43.6663 190.884 48.1123 190.695 52.8729C190.66 53.7481 192.057 53.8189 192.092 52.941C192.288 47.9666 191.079 43.2284 188.481 38.9404Z" fill="black"/>
<path fill-rule="evenodd" clip-rule="evenodd" d="M144.469 35.5768C144.909 34.8782 146.003 35.5177 145.563 36.2222C143.173 40.0338 141.953 44.2281 141.947 48.7741C141.941 49.6112 140.683 49.6248 140.689 48.7864C140.695 44.0358 141.966 39.5652 144.469 35.5768Z" fill="black"/>
<path fill-rule="evenodd" clip-rule="evenodd" d="M189.589 52.7627C188.639 49.5741 187.338 46.6214 185.663 43.8546C185.221 43.121 184.326 44.0613 184.767 44.788C186.31 47.3453 187.532 50.1177 188.409 53.0648C188.657 53.9022 189.843 53.6119 189.589 52.7627Z" fill="black"/>
<path fill-rule="evenodd" clip-rule="evenodd" d="M192.428 81.2948C190.579 83.739 189.111 86.3949 188.017 89.2435C187.686 90.0984 189.053 90.5389 189.384 89.6883C190.435 86.9452 191.852 84.4217 193.63 82.0696C194.184 81.3366 192.975 80.566 192.428 81.2948Z" fill="black"/>
<path fill-rule="evenodd" clip-rule="evenodd" d="M143.011 85.6595C141.503 83.8752 140.337 81.8913 139.489 79.7229C139.17 78.8982 137.933 79.5377 138.253 80.3569C139.149 82.634 140.399 84.7109 141.976 86.5826C142.552 87.2634 143.58 86.3389 143.011 85.6595Z" fill="black"/>
<path fill-rule="evenodd" clip-rule="evenodd" d="M137.908 87.1931C135.941 85.7565 134.53 83.7904 133.824 81.5075C133.561 80.6631 132.164 80.9531 132.427 81.8056C133.247 84.4515 134.851 86.6814 137.131 88.3459C137.865 88.881 138.635 87.7248 137.908 87.1931Z" fill="black"/>
<path fill-rule="evenodd" clip-rule="evenodd" d="M227.12 185.757C227.12 185.757 235.984 132.756 219.672 120.303C213.899 115.896 211.13 114.065 201.436 112.209C192.852 116.256 183.246 118.24 173.66 118.692C159.581 119.354 144.273 118.334 131.632 111.763C124.352 113.411 117.487 115.245 111.47 120.303C97.6124 131.95 99.2174 179.776 110.829 185.757C110.829 185.757 120.782 212.005 164.549 212.005C215.52 212.005 227.12 185.757 227.12 185.757Z" fill="url(#paint0_linear_513_7472)"/>
<path fill-rule="evenodd" clip-rule="evenodd" d="M172.372 76.0385C170.466 76.2873 168.754 76.3566 166.773 76.44C164.682 76.5276 161.048 76.3743 158.974 76.1721C157.428 76.0209 158.374 76.7128 158.602 76.9072C162.685 80.3769 168.775 80.0044 172.671 76.6103C172.758 76.5347 173.606 75.8774 172.372 76.0385Z" fill="#EB9879"/>
</g>
<circle opacity="0.45" cx="154" cy="9" r="4" fill="#FF8300"/>
<circle opacity="0.45" cx="154" cy="24" r="4" fill="#FF8300"/>
<circle opacity="0.45" cx="154" cy="39" r="4" fill="#FF8300"/>
<circle opacity="0.45" cx="154" cy="54" r="4" fill="#FF8300"/>
<circle opacity="0.45" cx="154" cy="69" r="4" fill="#FF8300"/>
<circle opacity="0.45" cx="154" cy="84" r="4" fill="#FF8300"/>
<circle opacity="0.45" cx="154" cy="99" r="4" fill="#FF8300"/>
<circle opacity="0.45" cx="154" cy="114" r="4" fill="#FF8300"/>
<circle opacity="0.45" cx="154" cy="129" r="4" fill="#FF8300"/>
<circle opacity="0.45" cx="154" cy="144" r="4" fill="#FF8300"/>
<circle opacity="0.45" cx="154" cy="159" r="4" fill="#FF8300"/>
<circle opacity="0.45" cx="154" cy="174" r="4" fill="#FF8300"/>
<circle opacity="0.35" cx="140.5" cy="10.5" r="2.5" fill="#FF8300"/>
<circle opacity="0.35" cx="140.5" cy="24.5" r="2.5" fill="#FF8300"/>
<circle opacity="0.35" cx="140.5" cy="38.5" r="2.5" fill="#FF8300"/>
<circle opacity="0.35" cx="140.5" cy="53.5" r="2.5" fill="#FF8300"/>
<circle opacity="0.35" cx="140.5" cy="68.5" r="2.5" fill="#FF8300"/>
<circle opacity="0.35" cx="140.5" cy="83.5" r="2.5" fill="#FF8300"/>
<circle opacity="0.35" cx="140.5" cy="98.5" r="2.5" fill="#FF8300"/>
<circle opacity="0.35" cx="140.5" cy="113.5" r="2.5" fill="#FF8300"/>
<circle opacity="0.35" cx="140.5" cy="128.5" r="2.5" fill="#FF8300"/>
<circle opacity="0.35" cx="140.5" cy="143.5" r="2.5" fill="#FF8300"/>
<circle opacity="0.35" cx="140.5" cy="158.5" r="2.5" fill="#FF8300"/>
<circle opacity="0.35" cx="140.5" cy="173.5" r="2.5" fill="#FF8300"/>
<circle opacity="0.25" cx="166.5" cy="10.5" r="2.5" fill="#FF8300"/>
<circle opacity="0.25" cx="166.5" cy="24.5" r="2.5" fill="#FF8300"/>
<circle opacity="0.25" cx="166.5" cy="38.5" r="2.5" fill="#FF8300"/>
<circle opacity="0.25" cx="166.5" cy="53.5" r="2.5" fill="#FF8300"/>
<circle opacity="0.25" cx="166.5" cy="68.5" r="2.5" fill="#FF8300"/>
<circle opacity="0.25" cx="166.5" cy="83.5" r="2.5" fill="#FF8300"/>
<circle opacity="0.25" cx="166.5" cy="98.5" r="2.5" fill="#FF8300"/>
<circle opacity="0.25" cx="166.5" cy="113.5" r="2.5" fill="#FF8300"/>
<circle opacity="0.25" cx="166.5" cy="128.5" r="2.5" fill="#FF8300"/>
<circle opacity="0.25" cx="166.5" cy="143.5" r="2.5" fill="#FF8300"/>
<circle opacity="0.25" cx="166.5" cy="158.5" r="2.5" fill="#FF8300"/>
<circle opacity="0.25" cx="166.5" cy="173.5" r="2.5" fill="#FF8300"/>
<defs>
<linearGradient id="paint0_linear_513_7472" x1="320.848" y1="303.674" x2="303.581" y2="111.747" gradientUnits="userSpaceOnUse">
<stop stop-color="#E57019"/>
<stop offset="1" stop-color="#FFA650"/>
</linearGradient>
</defs>
</svg>
